<?xml version="1.0" encoding="UTF-8"?><svg id="c" xmlns="http://www.w3.org/2000/svg" width="733" height="85.21" viewBox="0 0 733 85.21"><defs><style>.p{fill-rule:evenodd;}.p,.q{fill:#fff;stroke-width:0px;}</style></defs><path id="d" class="q" d="M91.89,83.69L57.39,1.29h-22.06L0,83.69h22.06l5.75-14.57h35.56l5.63,14.57h22.88ZM45.77,23.27l11.27,29.38h-22.77l11.5-29.38Z"/><path id="e" class="q" d="M117,49.72V1.29h-21.48v48.43c0,7.13,1.54,13.38,4.64,18.75,3.09,5.37,7.47,9.5,13.14,12.4,5.67,2.9,12.26,4.35,19.77,4.35s14.06-1.45,19.66-4.35c5.59-2.9,9.9-7.03,12.91-12.4,3.01-5.37,4.52-11.62,4.52-18.75V1.29h-21.48v48.43c0,5.25-1.43,9.42-4.28,12.52-2.86,3.1-6.59,4.64-11.21,4.64s-8.57-1.57-11.62-4.7c-3.05-3.13-4.58-7.29-4.58-12.46h0Z"/><path id="f" class="q" d="M220.28,1.29h-35.44v82.39h34.62c8.76,0,16.53-1.72,23.3-5.17,6.77-3.45,12.01-8.3,15.73-14.57,3.72-6.27,5.57-13.44,5.57-21.51s-1.84-15.22-5.52-21.45c-3.68-6.23-8.82-11.07-15.43-14.52-6.61-3.45-14.22-5.17-22.83-5.17h0ZM220.86,66.29h-14.55V18.81h13.5c4.3,0,8.14,1,11.5,3,3.36,2,6,4.8,7.92,8.4,1.92,3.61,2.88,7.76,2.88,12.46s-.9,8.74-2.7,12.34c-1.8,3.61-4.3,6.39-7.51,8.35-3.21,1.96-6.89,2.94-11.03,2.94h0Z"/><rect id="g" class="q" x="274.73" y="1.29" width="21.48" height="82.39"/><polygon id="h" class="q" points="396.66 19.04 421.07 19.04 421.07 83.69 442.55 83.69 442.55 19.04 467.19 19.04 467.19 1.29 396.66 1.29 396.66 19.04"/><path id="i" class="q" d="M516.25,0c-8.37,0-15.94,1.84-22.71,5.52-6.77,3.68-12.09,8.74-15.96,15.16-3.87,6.43-5.81,13.63-5.81,21.63s1.94,15.38,5.81,21.92c3.87,6.54,9.19,11.68,15.96,15.4,6.77,3.72,14.34,5.58,22.71,5.58s15.94-1.88,22.71-5.64c6.77-3.76,12.09-8.89,15.96-15.4,3.87-6.5,5.81-13.79,5.81-21.86s-1.94-15.2-5.81-21.63c-3.87-6.42-9.19-11.48-15.96-15.16-6.77-3.68-14.34-5.52-22.71-5.52h0ZM516.48,18.22c4.07,0,7.8,1.06,11.21,3.17,3.4,2.12,6.08,5.04,8.04,8.76,1.95,3.72,2.93,7.82,2.93,12.28s-.98,8.68-2.93,12.4c-1.96,3.72-4.64,6.66-8.04,8.82-3.4,2.16-7.14,3.23-11.21,3.23s-7.82-1.08-11.27-3.23c-3.44-2.15-6.2-5.09-8.27-8.82-2.07-3.72-3.11-7.85-3.11-12.4s1.02-8.56,3.05-12.28c2.03-3.72,4.79-6.64,8.27-8.76,3.48-2.12,7.26-3.17,11.32-3.17h0Z"/><path id="j" class="q" d="M591.47,49.72V1.29h-21.48v48.43c0,7.13,1.54,13.38,4.64,18.75,3.09,5.37,7.47,9.5,13.14,12.4,5.67,2.9,12.26,4.35,19.77,4.35s14.06-1.45,19.66-4.35c5.59-2.9,9.9-7.03,12.91-12.4,3.01-5.37,4.52-11.62,4.52-18.75V1.29h-21.48v48.43c0,5.25-1.43,9.42-4.28,12.52-2.86,3.1-6.59,4.64-11.21,4.64s-8.57-1.57-11.62-4.7c-3.05-3.13-4.58-7.29-4.58-12.46h0Z"/><path id="k" class="q" d="M733,83.69l-17.13-26.92c4.77-2.51,8.41-6.01,10.91-10.52,2.5-4.5,3.76-9.85,3.76-16.04,0-9.17-2.99-16.28-8.98-21.33-5.99-5.05-14.42-7.58-25.29-7.58h-36.97v82.39h21.48v-22.8h15.96l11.97,22.8h24.29ZM680.78,18.45h15.61c4.38,0,7.76,1.08,10.15,3.23,2.39,2.16,3.58,5.23,3.58,9.23s-1.19,7.33-3.58,9.52c-2.39,2.19-5.77,3.29-10.15,3.29h-15.61v-25.27Z"/><g id="l"><path class="p" d="M390.03,20.68c-3.87-6.42-9.2-11.47-15.96-15.16C367.3,1.84,359.73,0,351.36,0s-15.94,1.84-22.71,5.52c-6.77,3.69-12.09,8.74-15.96,15.16-3.87,6.43-5.81,13.64-5.81,21.63s1.94,15.38,5.81,21.92c3.87,6.54,9.19,11.68,15.96,15.4,6.77,3.72,14.34,5.58,22.71,5.58s15.94-1.88,22.71-5.64c6.76-3.76,12.09-8.89,15.96-15.4,3.87-6.5,5.81-13.79,5.81-21.86s-1.94-15.2-5.81-21.63ZM337.34,62.7V21.33l35.67,20.68-35.67,20.69Z"/></g></svg>