<svg xmlns="http://www.w3.org/2000/svg" width="14.143" height="12.494" viewBox="0 0 14.143 12.494">
  <path id="App_Store_Icon" data-name="App Store Icon" d="M113.646,138.566l.394-.68a.886.886,0,0,1,1.536.884l-3.793,6.565h2.743a1.214,1.214,0,0,1,1,1.769h-8.042a.884.884,0,1,1,0-1.769h2.255l2.886-5-.9-1.565a.886.886,0,1,1,1.536-.884l.386.683Zm-3.411,9.449-.85,1.475a.886.886,0,0,1-1.536-.884l.632-1.093a1.514,1.514,0,0,1,1.754.5Zm7.323-2.675h2.3a.884.884,0,0,1,0,1.769h-1.278l.863,1.5a.886.886,0,0,1-1.536.884q-2.179-3.779-3.268-5.661a2.447,2.447,0,0,1,.311-3q.871,1.494,2.607,4.507Z" transform="translate(-106.6 -137.44)" fill="#fff"/>
</svg>
