<svg xmlns="http://www.w3.org/2000/svg" width="13.686" height="13.678" viewBox="0 0 13.686 13.678">
  <path id="External_Link_Icon" data-name="External Link Icon" d="M4.551,16.454h8.291a2.25,2.25,0,0,0,1.644-.546,2.185,2.185,0,0,0,.553-1.623V5.951a2.2,2.2,0,0,0-.553-1.626,2.241,2.241,0,0,0-1.644-.549H4.551a2.252,2.252,0,0,0-1.641.546,2.187,2.187,0,0,0-.557,1.63v8.334a2.174,2.174,0,0,0,.557,1.626A2.261,2.261,0,0,0,4.551,16.454ZM4.6,15.232a1.018,1.018,0,0,1-.752-.26,1.05,1.05,0,0,1-.26-.773V6.038a1.05,1.05,0,0,1,.26-.773A1.018,1.018,0,0,1,4.6,5h8.19a1.033,1.033,0,0,1,.752.26,1.032,1.032,0,0,1,.267.773V14.2a.923.923,0,0,1-1.019,1.034Zm6.238-3.39a.488.488,0,0,0,.383-.163.613.613,0,0,0,.145-.423v-3.2a.6.6,0,0,0-.166-.473.671.671,0,0,0-.463-.148H7.522a.586.586,0,0,0-.416.145.5.5,0,0,0-.155.383.513.513,0,0,0,.159.394.59.59,0,0,0,.419.148h1.2L9.7,8.394l-1.041.954-2.45,2.458a.537.537,0,0,0-.181.4.552.552,0,0,0,.155.408A.586.586,0,0,0,7,12.587l2.458-2.443.947-1.034-.1,1.026v1.135a.577.577,0,0,0,.148.416A.51.51,0,0,0,10.84,11.842Z" transform="translate(-1.854 -3.275)" fill="rgba(255,255,255,0.47)" stroke="rgba(0,0,0,0)" stroke-miterlimit="10" stroke-width="1"/>
</svg>
