<svg xmlns="http://www.w3.org/2000/svg" xmlns:xlink="http://www.w3.org/1999/xlink" width="90" height="90" viewBox="0 0 90 90">
  <defs>
    <filter id="Feature_Icon_Quote" x="0" y="0" width="90" height="90" filterUnits="userSpaceOnUse">
      <feOffset dy="3" input="SourceAlpha"/>
      <feGaussianBlur stdDeviation="3" result="blur"/>
      <feFlood flood-opacity="0.161"/>
      <feComposite operator="in" in2="blur"/>
      <feComposite in="SourceGraphic"/>
    </filter>
  </defs>
  <g transform="matrix(1, 0, 0, 1, 0, 0)" filter="url(#Feature_Icon_Quote)">
    <path id="Feature_Icon_Quote-2" data-name="Feature Icon Quote" d="M37.669,74.848a34.48,34.48,0,0,0,13.9-2.835A36.907,36.907,0,0,0,70.834,52.744,34.635,34.635,0,0,0,73.65,38.829a34.48,34.48,0,0,0-2.835-13.9,37.112,37.112,0,0,0-7.8-11.506A36.213,36.213,0,0,0,51.528,5.645a34.873,34.873,0,0,0-13.9-2.8,34.741,34.741,0,0,0-13.878,2.8A36.8,36.8,0,0,0,4.467,24.933a34.675,34.675,0,0,0-2.816,13.9A34.44,34.44,0,0,0,4.485,52.744,37.081,37.081,0,0,0,23.754,72.013,34.44,34.44,0,0,0,37.669,74.848Zm0-6.6a28.844,28.844,0,0,1-11.45-2.279A29.446,29.446,0,0,1,10.544,50.279a29.049,29.049,0,0,1-2.26-11.45A29.179,29.179,0,0,1,37.632,9.444,29.2,29.2,0,0,1,67.054,38.829a29.135,29.135,0,0,1-8.56,20.826,29.527,29.527,0,0,1-9.375,6.318A28.844,28.844,0,0,1,37.669,68.252ZM27.33,55.949H48.489a5.144,5.144,0,0,0,3.891-1.427,5.9,5.9,0,0,0,1.371-4.243V31.6a5.669,5.669,0,0,0-1.464-4.243,5.947,5.947,0,0,0-4.317-1.427H45.265a7,7,0,0,0-2.279-5.04,7.8,7.8,0,0,0-10.672,0,6.868,6.868,0,0,0-2.242,5.04H27.33a6,6,0,0,0-4.354,1.427A5.669,5.669,0,0,0,21.512,31.6V50.279a5.669,5.669,0,0,0,1.464,4.243A6,6,0,0,0,27.33,55.949Zm6.262-30.015a3.893,3.893,0,0,1,1.167-2.779,4,4,0,0,1,2.872-1.038,4.037,4.037,0,0,1,2.927,1.038,3.8,3.8,0,0,1,1.112,2.779Z" transform="translate(7.35 3.15)" fill="#fff"/>
  </g>
</svg>
