<svg xmlns="http://www.w3.org/2000/svg" xmlns:xlink="http://www.w3.org/1999/xlink" width="90" height="90" viewBox="0 0 90 90">
  <defs>
    <filter id="Feature_Icon_Map" x="0" y="0" width="90" height="90" filterUnits="userSpaceOnUse">
      <feOffset dy="3" input="SourceAlpha"/>
      <feGaussianBlur stdDeviation="3" result="blur"/>
      <feFlood flood-opacity="0.161"/>
      <feComposite operator="in" in2="blur"/>
      <feComposite in="SourceGraphic"/>
    </filter>
  </defs>
  <g transform="matrix(1, 0, 0, 1, 0, 0)" filter="url(#Feature_Icon_Map)">
    <path id="Feature_Icon_Map-2" data-name="Feature Icon Map" d="M37.669,74.848a34.48,34.48,0,0,0,13.9-2.835A36.907,36.907,0,0,0,70.834,52.744,34.635,34.635,0,0,0,73.65,38.829a34.48,34.48,0,0,0-2.835-13.9,37.112,37.112,0,0,0-7.8-11.506A36.213,36.213,0,0,0,51.528,5.645a34.873,34.873,0,0,0-13.9-2.8,34.741,34.741,0,0,0-13.878,2.8A36.8,36.8,0,0,0,4.467,24.933a34.675,34.675,0,0,0-2.816,13.9A34.44,34.44,0,0,0,4.485,52.744,37.081,37.081,0,0,0,23.754,72.013,34.44,34.44,0,0,0,37.669,74.848Zm0-6.6a28.844,28.844,0,0,1-11.45-2.279A29.446,29.446,0,0,1,10.544,50.279a29.049,29.049,0,0,1-2.26-11.45A29.179,29.179,0,0,1,37.632,9.444,29.2,29.2,0,0,1,67.054,38.829a29.135,29.135,0,0,1-8.56,20.826,29.527,29.527,0,0,1-9.375,6.318A28.844,28.844,0,0,1,37.669,68.252ZM18.881,53.689a2,2,0,0,0,2.186,2.186,3.375,3.375,0,0,0,1.556-.482l7.411-4V21.376q-.3.148-.574.278a5.387,5.387,0,0,0-.574.315l-8.375,4.78a3.084,3.084,0,0,0-1.26,1.13,3.291,3.291,0,0,0-.371,1.649Zm13.674-2.705,8.819,5q.259.111.519.2t.519.167V26.9l-8.671-5.262a6.6,6.6,0,0,0-.593-.3q-.259-.111-.593-.222Zm12.34,5.336a6.17,6.17,0,0,0,.593-.259L54.715,50.8a3.052,3.052,0,0,0,1.3-1.13,3.208,3.208,0,0,0,.371-1.612V23.9a2.128,2.128,0,0,0-.593-1.63,2.289,2.289,0,0,0-1.63-.556,2.566,2.566,0,0,0-.778.13,5.949,5.949,0,0,0-.852.352l-7.634,4.261Z" transform="translate(7.35 3.15)" fill="#fff"/>
  </g>
</svg>
