<svg xmlns="http://www.w3.org/2000/svg" xmlns:xlink="http://www.w3.org/1999/xlink" width="90" height="90" viewBox="0 0 90 90">
  <defs>
    <filter id="Feature_Icon_GPS" x="0" y="0" width="90" height="90" filterUnits="userSpaceOnUse">
      <feOffset dy="3" input="SourceAlpha"/>
      <feGaussianBlur stdDeviation="3" result="blur"/>
      <feFlood flood-opacity="0.161"/>
      <feComposite operator="in" in2="blur"/>
      <feComposite in="SourceGraphic"/>
    </filter>
  </defs>
  <g transform="matrix(1, 0, 0, 1, 0, 0)" filter="url(#Feature_Icon_GPS)">
    <path id="Feature_Icon_GPS-2" data-name="Feature Icon GPS" d="M5.637,27.11q3.322,0,3.322-3.322V15.367a5.6,5.6,0,0,1,1.391-4.152,5.485,5.485,0,0,1,4.017-1.371H22.98q3.361,0,3.361-3.283,0-3.322-3.361-3.322H14.1q-5.794,0-8.768,2.936T2.354,14.865v8.923Q2.354,27.11,5.637,27.11Zm65.433,0q3.283,0,3.283-3.322V14.865q0-5.755-2.955-8.691T62.611,3.238H53.727q-3.322,0-3.322,3.322,0,3.283,3.322,3.283h8.614a5.567,5.567,0,0,1,4.017,1.371,5.505,5.505,0,0,1,1.429,4.152v8.421Q67.787,27.11,71.07,27.11ZM14.1,75.238H22.98q3.361,0,3.361-3.283T22.98,68.672H14.366A5.485,5.485,0,0,1,10.349,67.3a5.6,5.6,0,0,1-1.391-4.152V54.728q0-3.322-3.322-3.322-3.283,0-3.283,3.322v8.884q0,5.794,2.974,8.71T14.1,75.238Zm39.631,0h8.884q5.833,0,8.788-2.936t2.955-8.691V54.728q0-3.322-3.283-3.322t-3.283,3.322v8.421A5.505,5.505,0,0,1,66.358,67.3a5.567,5.567,0,0,1-4.017,1.371H53.727q-3.322,0-3.322,3.283T53.727,75.238ZM19.388,42.29l14.91.039a1.076,1.076,0,0,1,1.2,1.236l.039,14.717a2.731,2.731,0,0,0,.908,2.337,2.391,2.391,0,0,0,2.067.406,2.518,2.518,0,0,0,1.738-1.545l15.837-33.8a3.377,3.377,0,0,0,.193-2.665,2.791,2.791,0,0,0-1.642-1.661,3.25,3.25,0,0,0-2.646.232L18.19,37.577A2.516,2.516,0,0,0,16.645,39.3a2.375,2.375,0,0,0,.425,2.067A2.711,2.711,0,0,0,19.388,42.29Z" transform="translate(6.65 2.76)" fill="#fff"/>
  </g>
</svg>
