<svg xmlns="http://www.w3.org/2000/svg" xmlns:xlink="http://www.w3.org/1999/xlink" width="90" height="90" viewBox="0 0 90 90">
  <defs>
    <filter id="Feature_Icon_Quiz" x="0" y="0" width="90" height="90" filterUnits="userSpaceOnUse">
      <feOffset dy="3" input="SourceAlpha"/>
      <feGaussianBlur stdDeviation="3" result="blur"/>
      <feFlood flood-opacity="0.161"/>
      <feComposite operator="in" in2="blur"/>
      <feComposite in="SourceGraphic"/>
    </filter>
  </defs>
  <g transform="matrix(1, 0, 0, 1, 0, 0)" filter="url(#Feature_Icon_Quiz)">
    <path id="Feature_Icon_Quiz-2" data-name="Feature Icon Quiz" d="M37.669,74.848a34.48,34.48,0,0,0,13.9-2.835A36.907,36.907,0,0,0,70.834,52.744,34.635,34.635,0,0,0,73.65,38.829a34.48,34.48,0,0,0-2.835-13.9,37.112,37.112,0,0,0-7.8-11.506A36.213,36.213,0,0,0,51.528,5.645a34.873,34.873,0,0,0-13.9-2.8,34.741,34.741,0,0,0-13.878,2.8A36.8,36.8,0,0,0,4.467,24.933a34.675,34.675,0,0,0-2.816,13.9A34.44,34.44,0,0,0,4.485,52.744,37.081,37.081,0,0,0,23.754,72.013,34.44,34.44,0,0,0,37.669,74.848Zm0-6.6a28.844,28.844,0,0,1-11.45-2.279A29.446,29.446,0,0,1,10.544,50.279a29.049,29.049,0,0,1-2.26-11.45A29.179,29.179,0,0,1,37.632,9.444,29.2,29.2,0,0,1,67.054,38.829a29.135,29.135,0,0,1-8.56,20.826,29.527,29.527,0,0,1-9.375,6.318A28.844,28.844,0,0,1,37.669,68.252ZM18.733,25.934a11.919,11.919,0,0,0,1.63,6.244A15.167,15.167,0,0,0,24.7,36.81a23.2,23.2,0,0,0,6,3.02,13.847,13.847,0,0,0,3.409,3.15V49.8H31.74a4.057,4.057,0,0,0-3,1.075A3.956,3.956,0,0,0,27.664,53.8v2.927a1.625,1.625,0,0,0,.5,1.223,1.72,1.72,0,0,0,1.241.482H45.932a1.7,1.7,0,0,0,1.26-.482,1.657,1.657,0,0,0,.482-1.223V53.8A3.956,3.956,0,0,0,46.6,50.872a4.057,4.057,0,0,0-3-1.075H41.226V42.979a13.029,13.029,0,0,0,3.409-3.15,23.051,23.051,0,0,0,6.04-3.02,14.956,14.956,0,0,0,4.317-4.632A12.025,12.025,0,0,0,56.6,25.934a3.075,3.075,0,0,0-.926-2.353,3.426,3.426,0,0,0-2.446-.871H48.563a3.266,3.266,0,0,0-1.278-2.149,4.4,4.4,0,0,0-2.65-.741H30.7a4.331,4.331,0,0,0-2.612.741,3.408,3.408,0,0,0-1.315,2.149H22.142a3.478,3.478,0,0,0-2.483.871A3.075,3.075,0,0,0,18.733,25.934Zm7.856.111v3.039a15.526,15.526,0,0,0,1.223,6.04,14.357,14.357,0,0,1-3.946-3.52,8.331,8.331,0,0,1-1.834-5.225.3.3,0,0,1,.334-.334Zm22.16,0H53.01q.3,0,.3.334A8.1,8.1,0,0,1,51.491,31.6a14.6,14.6,0,0,1-3.965,3.52,15.526,15.526,0,0,0,1.223-6.04Z" transform="translate(7.35 3.15)" fill="#fff"/>
  </g>
</svg>
