<svg xmlns="http://www.w3.org/2000/svg" xmlns:xlink="http://www.w3.org/1999/xlink" width="90" height="89.25" viewBox="0 0 90 89.25">
  <defs>
    <filter id="Feature_Icon_Project" x="0" y="0" width="90" height="89.25" filterUnits="userSpaceOnUse">
      <feOffset dy="3" input="SourceAlpha"/>
      <feGaussianBlur stdDeviation="3" result="blur"/>
      <feFlood flood-opacity="0.161"/>
      <feComposite operator="in" in2="blur"/>
      <feComposite in="SourceGraphic"/>
    </filter>
  </defs>
  <g transform="matrix(1, 0, 0, 1, 0, 0)" filter="url(#Feature_Icon_Project)">
    <path id="Feature_Icon_Project-2" data-name="Feature Icon Project" d="M32.171,39.667H47.257V35.049H32.171a2.283,2.283,0,0,0-1.68.683,2.2,2.2,0,0,0-.683,1.609,2.239,2.239,0,0,0,.683,1.645A2.286,2.286,0,0,0,32.171,39.667ZM51.8,44.183a6.529,6.529,0,0,0,4.812-2.014,6.835,6.835,0,0,0,0-9.654,6.757,6.757,0,0,0-9.621,0,6.835,6.835,0,0,0,0,9.654A6.526,6.526,0,0,0,51.8,44.183Zm0-3.635a3.075,3.075,0,0,1-2.284-.937,3.158,3.158,0,0,1-.921-2.3,3.042,3.042,0,0,1,.921-2.266,3.318,3.318,0,0,1,4.551,0,3.016,3.016,0,0,1,.937,2.266,3.131,3.131,0,0,1-.937,2.3A3.089,3.089,0,0,1,51.8,40.549Zm4.26-.882h5.177a2.112,2.112,0,0,0,1.557-.681,2.266,2.266,0,0,0,.667-1.645,2.227,2.227,0,0,0-.667-1.609,2.11,2.11,0,0,0-1.557-.683H56.061ZM32.029,57.275h5.149V52.657H32.029a2.107,2.107,0,0,0-1.555.681,2.228,2.228,0,0,0-.665,1.61,2.256,2.256,0,0,0,.665,1.66A2.128,2.128,0,0,0,32.029,57.275Zm9.438,4.516a6.872,6.872,0,1,0-4.825-2.014A6.585,6.585,0,0,0,41.467,61.792Zm0-3.635a3.07,3.07,0,0,1-2.28-.937,3.2,3.2,0,1,1,4.567,0A3.078,3.078,0,0,1,41.467,58.157Zm4.544-.881H61.1a2.312,2.312,0,0,0,1.677-.667,2.223,2.223,0,0,0,.685-1.66,2.2,2.2,0,0,0-.685-1.61,2.287,2.287,0,0,0-1.677-.681H46.01Zm-32.855.745h8.771v-6.03H13.395a5.037,5.037,0,0,1-3.687-1.272,5.119,5.119,0,0,1-1.293-3.808V13.654A5.112,5.112,0,0,1,9.708,9.849a5.041,5.041,0,0,1,3.687-1.27H46.784a5.1,5.1,0,0,1,3.7,1.27A5.074,5.074,0,0,1,51.8,13.654v7.321h6.03V13.22q0-5.285-2.725-7.978T47.054,2.549h-33.9q-5.381,0-8.091,2.677T2.354,13.22V47.347q0,5.285,2.711,7.979T13.156,58.021ZM29.688,73.8H63.551q5.353,0,8.078-2.695t2.725-7.979V29q0-5.285-2.725-7.978t-8.078-2.693H29.688q-5.385,0-8.1,2.677T18.882,29V63.126q0,5.285,2.71,7.979T29.688,73.8Zm.239-6.03A5.051,5.051,0,0,1,26.2,66.482a5.128,5.128,0,0,1-1.293-3.792V29.434A5.113,5.113,0,0,1,26.2,25.628a5.092,5.092,0,0,1,3.722-1.27H63.312a5.1,5.1,0,0,1,3.7,1.27,5.075,5.075,0,0,1,1.309,3.806V62.691a4.542,4.542,0,0,1-5.012,5.079Z" transform="translate(6.65 3.45)" fill="#fff"/>
  </g>
</svg>
