<svg xmlns="http://www.w3.org/2000/svg" xmlns:xlink="http://www.w3.org/1999/xlink" width="90" height="75.758" viewBox="0 0 90 75.758">
  <defs>
    <filter id="Feature_Icon_Lead" x="0" y="0" width="90" height="75.758" filterUnits="userSpaceOnUse">
      <feOffset dy="3" input="SourceAlpha"/>
      <feGaussianBlur stdDeviation="3" result="blur"/>
      <feFlood flood-opacity="0.161"/>
      <feComposite operator="in" in2="blur"/>
      <feComposite in="SourceGraphic"/>
    </filter>
  </defs>
  <g transform="matrix(1, 0, 0, 1, 0, 0)" filter="url(#Feature_Icon_Lead)">
    <path id="Feature_Icon_Lead-2" data-name="Feature Icon Lead" d="M18.379,55.94a2.736,2.736,0,0,0,1.419-.386A9.8,9.8,0,0,0,21.382,54.3l7.2-6.664a7.074,7.074,0,0,1-1.825-2.415,10.676,10.676,0,0,1-.77-4.577V23.492a13.786,13.786,0,0,1,1.525-6.7,10.358,10.358,0,0,1,4.343-4.283,14.2,14.2,0,0,1,6.721-1.489H56.4l-.024-.869A9.093,9.093,0,0,0,53.6,4.032,9.626,9.626,0,0,0,46.75,1.726H12.028a9.815,9.815,0,0,0-7.04,2.5,9.227,9.227,0,0,0-2.634,7.036V36.185a9.732,9.732,0,0,0,2.611,7.141,9.35,9.35,0,0,0,6.976,2.65h4.122v7.313a2.893,2.893,0,0,0,.609,1.929A2.111,2.111,0,0,0,18.379,55.94Zm41.439,3.544a2.109,2.109,0,0,0,1.707-.723,2.9,2.9,0,0,0,.609-1.93V49.517h2.633a9.353,9.353,0,0,0,6.976-2.649,9.73,9.73,0,0,0,2.611-7.142V24.107a9.227,9.227,0,0,0-2.634-7.036,9.815,9.815,0,0,0-7.04-2.5H39.234a9.728,9.728,0,0,0-7.135,2.5q-2.534,2.5-2.534,7.075V39.726A9.894,9.894,0,0,0,32.1,46.877a9.424,9.424,0,0,0,7.135,2.64h8.411l9.169,8.323a10.444,10.444,0,0,0,1.56,1.244A2.708,2.708,0,0,0,59.818,59.484Z" transform="translate(6.65 4.27)" fill="#fff"/>
  </g>
</svg>
