<svg xmlns="http://www.w3.org/2000/svg" xmlns:xlink="http://www.w3.org/1999/xlink" width="90" height="90" viewBox="0 0 90 90">
  <defs>
    <filter id="Path_52" x="0" y="0" width="90" height="90" filterUnits="userSpaceOnUse">
      <feOffset dy="3" input="SourceAlpha"/>
      <feGaussianBlur stdDeviation="3" result="blur"/>
      <feFlood flood-opacity="0.161"/>
      <feComposite operator="in" in2="blur"/>
      <feComposite in="SourceGraphic"/>
    </filter>
    <filter id="Path_53" x="13.382" y="20.984" width="63.235" height="48.031" filterUnits="userSpaceOnUse">
      <feOffset dy="3" input="SourceAlpha"/>
      <feGaussianBlur stdDeviation="3" result="blur-2"/>
      <feFlood flood-opacity="0.161"/>
      <feComposite operator="in" in2="blur-2"/>
      <feComposite in="SourceGraphic"/>
    </filter>
  </defs>
  <g id="Feature_Icon_Modules" data-name="Feature Icon Modules" transform="translate(-99 -18)">
    <g transform="matrix(1, 0, 0, 1, 99, 18)" filter="url(#Path_52)">
      <path id="Path_52-2" data-name="Path 52" d="M37.669,74.848a34.48,34.48,0,0,0,13.9-2.835A36.907,36.907,0,0,0,70.834,52.744,34.635,34.635,0,0,0,73.65,38.829a34.48,34.48,0,0,0-2.835-13.9,37.112,37.112,0,0,0-7.8-11.506A36.213,36.213,0,0,0,51.528,5.645a34.873,34.873,0,0,0-13.9-2.8,34.741,34.741,0,0,0-13.878,2.8A36.8,36.8,0,0,0,4.467,24.933a34.675,34.675,0,0,0-2.816,13.9A34.44,34.44,0,0,0,4.485,52.744,37.081,37.081,0,0,0,23.754,72.013,34.44,34.44,0,0,0,37.669,74.848Zm0-6.6a28.844,28.844,0,0,1-11.45-2.279A29.446,29.446,0,0,1,10.544,50.279a29.049,29.049,0,0,1-2.26-11.45A29.179,29.179,0,0,1,37.632,9.444,29.2,29.2,0,0,1,67.054,38.829a29.135,29.135,0,0,1-8.56,20.826,29.527,29.527,0,0,1-9.375,6.318A28.844,28.844,0,0,1,37.669,68.252Z" transform="translate(7.35 3.15)" fill="#fff"/>
    </g>
    <g transform="matrix(1, 0, 0, 1, 99, 18)" filter="url(#Path_53)">
      <path id="Path_53-2" data-name="Path 53" d="M2.354,18.379a5.124,5.124,0,0,0,.67,2.7,4.439,4.439,0,0,0,1.763,1.68,5.034,5.034,0,0,0,2.367.571A4.453,4.453,0,0,0,8.6,23.106a6.568,6.568,0,0,0,1.354-.661,1.22,1.22,0,0,1,1.1-.224.756.756,0,0,1,.424.771v5.676A4.717,4.717,0,0,0,12.705,32.2a4.951,4.951,0,0,0,3.6,1.2h4.05a.756.756,0,0,0,.77-.424,1.233,1.233,0,0,0-.208-1.1,6.927,6.927,0,0,1-.669-1.354,4.308,4.308,0,0,1-.23-1.442,4.982,4.982,0,0,1,.579-2.366,4.507,4.507,0,0,1,1.68-1.763,5.119,5.119,0,0,1,2.707-.67,5.125,5.125,0,0,1,2.7.67,4.444,4.444,0,0,1,1.681,1.763,5.029,5.029,0,0,1,.572,2.366,4.439,4.439,0,0,1-.223,1.442,6.606,6.606,0,0,1-.662,1.354,1.236,1.236,0,0,0-.209,1.1.743.743,0,0,0,.756.424h4.063a4.927,4.927,0,0,0,3.59-1.2,4.732,4.732,0,0,0,1.221-3.532V22.992a.754.754,0,0,1,.431-.771,1.2,1.2,0,0,1,1.1.224,6.922,6.922,0,0,0,1.369.661,4.457,4.457,0,0,0,1.443.222,5,5,0,0,0,2.351-.571,4.44,4.44,0,0,0,1.763-1.68,5.125,5.125,0,0,0,.67-2.7,5.158,5.158,0,0,0-.67-2.714,4.44,4.44,0,0,0-1.763-1.68,5,5,0,0,0-2.351-.571,4.443,4.443,0,0,0-1.443.223,6.546,6.546,0,0,0-1.369.676,1.21,1.21,0,0,1-1.1.208.754.754,0,0,1-.431-.77V8.093a4.732,4.732,0,0,0-1.221-3.532,4.927,4.927,0,0,0-3.59-1.2H29.592a.743.743,0,0,0-.756.424,1.232,1.232,0,0,0,.209,1.1,6.606,6.606,0,0,1,.662,1.354,4.444,4.444,0,0,1,.223,1.444,5.024,5.024,0,0,1-.572,2.366,4.446,4.446,0,0,1-1.681,1.763,5.124,5.124,0,0,1-2.7.67,5.118,5.118,0,0,1-2.707-.67,4.509,4.509,0,0,1-1.68-1.763,4.978,4.978,0,0,1-.579-2.366,4.313,4.313,0,0,1,.23-1.444,6.927,6.927,0,0,1,.669-1.354,1.23,1.23,0,0,0,.208-1.1.756.756,0,0,0-.77-.424H16.3a4.951,4.951,0,0,0-3.6,1.2,4.717,4.717,0,0,0-1.228,3.532v5.658a.756.756,0,0,1-.424.77,1.233,1.233,0,0,1-1.1-.208A6.223,6.223,0,0,0,8.6,13.636a4.439,4.439,0,0,0-1.442-.223,5.034,5.034,0,0,0-2.367.571,4.439,4.439,0,0,0-1.763,1.68A5.158,5.158,0,0,0,2.354,18.379Z" transform="translate(20.03 23.62)" fill="#fff"/>
    </g>
  </g>
</svg>
