<svg xmlns="http://www.w3.org/2000/svg" xmlns:xlink="http://www.w3.org/1999/xlink" width="90" height="90" viewBox="0 0 90 90">
  <defs>
    <filter id="Feature_Icon_App" x="0" y="0" width="90" height="90" filterUnits="userSpaceOnUse">
      <feOffset dy="3" input="SourceAlpha"/>
      <feGaussianBlur stdDeviation="3" result="blur"/>
      <feFlood flood-opacity="0.161"/>
      <feComposite operator="in" in2="blur"/>
      <feComposite in="SourceGraphic"/>
    </filter>
  </defs>
  <g transform="matrix(1, 0, 0, 1, 0, 0)" filter="url(#Feature_Icon_App)">
    <path id="Feature_Icon_App-2" data-name="Feature Icon App" d="M2.354,24.341H9.369V16.624a5.962,5.962,0,0,1,1.477-4.392,5.775,5.775,0,0,1,4.267-1.478h7.631V3.775H14.825q-6.154,0-9.313,3.1T2.354,16.131ZM28.241,10.754H48.466V3.775H28.241ZM67.379,24.341h6.974v-8.21q0-6.116-3.159-9.236t-9.313-3.12H53.964v6.978h7.631a5.861,5.861,0,0,1,4.267,1.478,5.864,5.864,0,0,1,1.518,4.392Zm0,25.409h6.974V29.8H67.379ZM53.964,75.775h7.918q6.154,0,9.313-3.1t3.159-9.216V55.21H67.379v7.758a5.241,5.241,0,0,1-5.785,5.87H53.964Zm-25.723,0H48.466V68.838H28.241Zm-13.415,0h7.918V68.838H15.112a5.775,5.775,0,0,1-4.267-1.478,5.962,5.962,0,0,1-1.477-4.392V55.21H2.354v8.251q0,6.157,3.159,9.236T14.825,75.775ZM2.354,49.75H9.369V29.8H2.354ZM18.312,63.255H58.395a3.52,3.52,0,0,0,2.626-.883,3.65,3.65,0,0,0,.862-2.648V19.743A3.65,3.65,0,0,0,61.02,17.1a3.52,3.52,0,0,0-2.626-.883H18.312a3.52,3.52,0,0,0-2.626.883,3.65,3.65,0,0,0-.862,2.648V59.725a3.65,3.65,0,0,0,.862,2.648A3.52,3.52,0,0,0,18.312,63.255Z" transform="translate(6.65 2.22)" fill="#fff"/>
  </g>
</svg>
