<svg xmlns="http://www.w3.org/2000/svg" xmlns:xlink="http://www.w3.org/1999/xlink" width="98" height="98" viewBox="0 0 98 98">
  <defs>
    <linearGradient id="linear-gradient" x1="0.5" x2="0.5" y2="1" gradientUnits="objectBoundingBox">
      <stop offset="0" stop-color="#217af5"/>
      <stop offset="1" stop-color="#0047aa"/>
    </linearGradient>
    <filter id="Rectangle_18" x="0" y="0" width="98" height="98" filterUnits="userSpaceOnUse">
      <feOffset dy="4" input="SourceAlpha"/>
      <feGaussianBlur stdDeviation="4.5" result="blur"/>
      <feFlood flood-opacity="0.161"/>
      <feComposite operator="in" in2="blur"/>
      <feComposite in="SourceGraphic"/>
    </filter>
    <filter id="Path_10" x="21.849" y="19.103" width="54.301" height="55.453" filterUnits="userSpaceOnUse">
      <feOffset dy="3" input="SourceAlpha"/>
      <feGaussianBlur stdDeviation="3" result="blur-2"/>
      <feFlood flood-opacity="0.161"/>
      <feComposite operator="in" in2="blur-2"/>
      <feComposite in="SourceGraphic"/>
    </filter>
  </defs>
  <g id="Group_213" data-name="Group 213" transform="translate(-8.767 -687.767)">
    <g transform="matrix(1, 0, 0, 1, 8.77, 687.77)" filter="url(#Rectangle_18)">
      <rect id="Rectangle_18-2" data-name="Rectangle 18" width="71" height="71" rx="17" transform="translate(13.5 9.5)" fill="url(#linear-gradient)"/>
    </g>
    <g transform="matrix(1, 0, 0, 1, 8.77, 687.77)" filter="url(#Path_10)">
      <path id="Path_10-2" data-name="Path 10" d="M2.354,21.964a30.9,30.9,0,0,0,.5,5.459,34.982,34.982,0,0,0,1.427,5.425,29.645,29.645,0,0,0,2.241,4.935,1.51,1.51,0,0,0,.972.784,1.736,1.736,0,0,0,1.272-.19,1.5,1.5,0,0,0,.767-.97,1.753,1.753,0,0,0-.209-1.291A29.944,29.944,0,0,1,6.6,29.206a28.741,28.741,0,0,1-.958-7.242A19.745,19.745,0,0,1,6.7,15.332a14.687,14.687,0,0,1,3.03-5.122,13.489,13.489,0,0,1,4.7-3.3A15.4,15.4,0,0,1,20.5,5.755a15.421,15.421,0,0,1,6.072,1.158,13.467,13.467,0,0,1,4.708,3.3,14.688,14.688,0,0,1,3.03,5.122,19.745,19.745,0,0,1,1.057,6.632,28.716,28.716,0,0,1-.959,7.242,29.973,29.973,0,0,1-2.726,6.909,1.709,1.709,0,0,0-.225,1.291,1.5,1.5,0,0,0,.766.97,1.737,1.737,0,0,0,1.273.19,1.561,1.561,0,0,0,.988-.784,30.99,30.99,0,0,0,2.234-4.935,34.3,34.3,0,0,0,1.435-5.425,30.963,30.963,0,0,0,.5-5.459A23.372,23.372,0,0,0,37.363,14a17.732,17.732,0,0,0-3.694-6.163,16.345,16.345,0,0,0-5.739-3.97A19.111,19.111,0,0,0,20.5,2.471a19.159,19.159,0,0,0-7.442,1.392,16.261,16.261,0,0,0-5.731,3.97A17.8,17.8,0,0,0,3.645,14,23.372,23.372,0,0,0,2.354,21.964ZM8.111,37.336a3.384,3.384,0,0,0,4.48,2.394,3.459,3.459,0,0,0,2.219-1.695,3.576,3.576,0,0,0,.192-2.8l-2.529-8.49a3.522,3.522,0,0,0-1.692-2.2,3.589,3.589,0,0,0-2.786-.213,3.524,3.524,0,0,0-2.219,1.7,3.56,3.56,0,0,0-.192,2.8Zm24.786,0,2.53-8.505a3.568,3.568,0,0,0-.193-2.8,3.521,3.521,0,0,0-2.218-1.7,3.605,3.605,0,0,0-2.8.213,3.529,3.529,0,0,0-1.684,2.2l-2.53,8.49a3.6,3.6,0,0,0,.193,2.811,3.464,3.464,0,0,0,2.218,1.686,3.392,3.392,0,0,0,4.48-2.394Z" transform="translate(28.5 22.63)" fill="#fff5f5"/>
    </g>
  </g>
</svg>
