<svg xmlns="http://www.w3.org/2000/svg" xmlns:xlink="http://www.w3.org/1999/xlink" width="95" height="95" viewBox="0 0 95 95">
  <defs>
    <linearGradient id="linear-gradient" x1="0.5" x2="0.5" y2="1" gradientUnits="objectBoundingBox">
      <stop offset="0" stop-color="#3ed12c"/>
      <stop offset="1" stop-color="#009311"/>
    </linearGradient>
    <filter id="Rectangle_18" x="0" y="0" width="95" height="95" filterUnits="userSpaceOnUse">
      <feOffset dy="4" input="SourceAlpha"/>
      <feGaussianBlur stdDeviation="4" result="blur"/>
      <feFlood flood-opacity="0.161"/>
      <feComposite operator="in" in2="blur"/>
      <feComposite in="SourceGraphic"/>
    </filter>
    <filter id="Path_12" x="21.031" y="17.301" width="53.296" height="57.853" filterUnits="userSpaceOnUse">
      <feOffset dy="3" input="SourceAlpha"/>
      <feGaussianBlur stdDeviation="3" result="blur-2"/>
      <feFlood flood-opacity="0.161"/>
      <feComposite operator="in" in2="blur-2"/>
      <feComposite in="SourceGraphic"/>
    </filter>
  </defs>
  <g id="Group_214" data-name="Group 214" transform="translate(12 8.135)">
    <g transform="matrix(1, 0, 0, 1, -12, -8.14)" filter="url(#Rectangle_18)">
      <rect id="Rectangle_18-2" data-name="Rectangle 18" width="71" height="71" rx="17" transform="translate(12 8)" fill="url(#linear-gradient)"/>
    </g>
    <g transform="matrix(1, 0, 0, 1, -12, -8.14)" filter="url(#Path_12)">
      <path id="Path_12-2" data-name="Path 12" d="M12.359,9.016a6.787,6.787,0,0,0,.665,2.99,7.012,7.012,0,0,0,1.832,2.354A6.85,6.85,0,0,0,17.5,15.737V27.072A27.121,27.121,0,0,0,17.8,31.4a12.527,12.527,0,0,0,.7,2.744q.408.959.788.959t.8-.949a11.669,11.669,0,0,0,.7-2.744,28.2,28.2,0,0,0,.285-4.338V15.737a6.905,6.905,0,0,0,5.145-6.721A6.8,6.8,0,0,0,25.3,5.522a6.994,6.994,0,0,0-2.5-2.516,6.727,6.727,0,0,0-3.513-.94,6.642,6.642,0,0,0-3.484.94A7.174,7.174,0,0,0,13.3,5.522,6.692,6.692,0,0,0,12.359,9.016Zm4.956.361a2.256,2.256,0,0,1-1.642-.712A2.277,2.277,0,0,1,14.96,7a2.246,2.246,0,0,1,.712-1.652,2.271,2.271,0,0,1,1.642-.7,2.3,2.3,0,0,1,1.69.7A2.261,2.261,0,0,1,19.707,7,2.292,2.292,0,0,1,19,8.664,2.289,2.289,0,0,1,17.315,9.376ZM19.308,41.92a38.659,38.659,0,0,0,7.433-.646,22.328,22.328,0,0,0,5.544-1.766,10.473,10.473,0,0,0,3.465-2.554,4.64,4.64,0,0,0,1.2-3.009,4.863,4.863,0,0,0-1.225-3.228,10.583,10.583,0,0,0-3.19-2.478,19.08,19.08,0,0,0-4.206-1.6,19.585,19.585,0,0,0-4.272-.627v2.9a16.7,16.7,0,0,1,2.971.408,15.187,15.187,0,0,1,2.933.968,8.048,8.048,0,0,1,2.24,1.443,2.463,2.463,0,0,1,.873,1.813,3.339,3.339,0,0,1-1.785,2.744,14.285,14.285,0,0,1-4.9,1.851,34.109,34.109,0,0,1-7.082.665,34.213,34.213,0,0,1-7.1-.665,14.285,14.285,0,0,1-4.9-1.851,3.339,3.339,0,0,1-1.785-2.744,2.474,2.474,0,0,1,.864-1.813,7.865,7.865,0,0,1,2.24-1.443,15.426,15.426,0,0,1,2.943-.968,16.659,16.659,0,0,1,2.952-.408v-2.9a19.449,19.449,0,0,0-4.263.627,18.926,18.926,0,0,0-4.187,1.6,10.742,10.742,0,0,0-3.19,2.478A4.842,4.842,0,0,0,1.65,33.945a4.661,4.661,0,0,0,1.187,3.009A10.342,10.342,0,0,0,6.3,39.508a22.5,22.5,0,0,0,5.554,1.766A38.772,38.772,0,0,0,19.308,41.92Z" transform="translate(28.38 21.23)" fill="#fff5f5"/>
    </g>
  </g>
</svg>
