<svg xmlns="http://www.w3.org/2000/svg" width="18.154" height="20.498" viewBox="0 0 18.154 20.498">
  <path id="Footer_Location_Icon" data-name="Footer Location Icon" d="M7.158,5.641A3.491,3.491,0,0,0,7.5,7.179,3.607,3.607,0,0,0,8.442,8.39,3.523,3.523,0,0,0,9.8,9.1v5.83a13.95,13.95,0,0,0,.151,2.227,6.443,6.443,0,0,0,.361,1.411q.21.493.405.493t.41-.488a6,6,0,0,0,.361-1.411,14.5,14.5,0,0,0,.146-2.231V9.1a3.552,3.552,0,0,0,2.646-3.457,3.5,3.5,0,0,0-.474-1.8A3.6,3.6,0,0,0,12.529,2.55a3.46,3.46,0,0,0-1.807-.483,3.416,3.416,0,0,0-1.792.483A3.69,3.69,0,0,0,7.642,3.844,3.442,3.442,0,0,0,7.158,5.641Zm2.549.186a1.16,1.16,0,0,1-.845-.366A1.171,1.171,0,0,1,8.5,4.605a1.155,1.155,0,0,1,.366-.85,1.168,1.168,0,0,1,.845-.361,1.185,1.185,0,0,1,.869.361,1.163,1.163,0,0,1,.361.85,1.242,1.242,0,0,1-1.23,1.221Zm1.025,16.738a19.884,19.884,0,0,0,3.823-.332,11.484,11.484,0,0,0,2.852-.908,5.387,5.387,0,0,0,1.782-1.313,2.387,2.387,0,0,0,.615-1.548,2.5,2.5,0,0,0-.63-1.66,5.443,5.443,0,0,0-1.641-1.274,9.814,9.814,0,0,0-2.163-.825,10.073,10.073,0,0,0-2.2-.322v1.494a8.589,8.589,0,0,1,1.528.21,7.811,7.811,0,0,1,1.509.5,4.139,4.139,0,0,1,1.152.742,1.267,1.267,0,0,1,.449.933,1.717,1.717,0,0,1-.918,1.411,7.347,7.347,0,0,1-2.52.952,17.543,17.543,0,0,1-3.643.342,17.6,17.6,0,0,1-3.652-.342,7.347,7.347,0,0,1-2.52-.952,1.717,1.717,0,0,1-.918-1.411,1.273,1.273,0,0,1,.444-.933,4.045,4.045,0,0,1,1.152-.742,7.934,7.934,0,0,1,1.514-.5,8.568,8.568,0,0,1,1.519-.21V14.381a10,10,0,0,0-2.192.322,9.734,9.734,0,0,0-2.153.825A5.525,5.525,0,0,0,2.285,16.8a2.49,2.49,0,0,0-.635,1.66,2.4,2.4,0,0,0,.61,1.548,5.319,5.319,0,0,0,1.782,1.313,11.571,11.571,0,0,0,2.856.908A19.942,19.942,0,0,0,10.732,22.564Z" transform="translate(-1.65 -2.066)" fill="#fff"/>
</svg>
