<svg xmlns="http://www.w3.org/2000/svg" width="13.516" height="22" viewBox="0 0 13.516 22">
  <path id="Footer_iPhone_Icon" data-name="Footer iPhone Icon" d="M6.353,24.37h7.81a2.839,2.839,0,0,0,2.053-.752A2.632,2.632,0,0,0,17,21.628V5.111a2.636,2.636,0,0,0-.783-1.984,2.829,2.829,0,0,0-2.053-.757H6.353a2.88,2.88,0,0,0-2.08.757,2.622,2.622,0,0,0-.79,1.983V21.629a2.619,2.619,0,0,0,.79,1.988A2.89,2.89,0,0,0,6.353,24.37Zm.275-1.862a1.333,1.333,0,0,1-.965-.326,1.228,1.228,0,0,1-.338-.926V5.484a1.228,1.228,0,0,1,.338-.926,1.333,1.333,0,0,1,.965-.326h1.33a.22.22,0,0,1,.249.249v.242a.728.728,0,0,0,.194.53.686.686,0,0,0,.515.2h2.659a.7.7,0,0,0,.52-.2.719.719,0,0,0,.2-.53V4.481q0-.249.239-.249h1.323a1.347,1.347,0,0,1,.969.327,1.22,1.22,0,0,1,.342.926V21.254a1.22,1.22,0,0,1-.342.926,1.347,1.347,0,0,1-.969.327Zm1.436-.78h4.375a.492.492,0,0,0,.354-.135.531.531,0,0,0,0-.721.491.491,0,0,0-.354-.136H8.064a.491.491,0,0,0-.355.136.533.533,0,0,0,0,.721A.492.492,0,0,0,8.064,21.727Z" transform="translate(-3.483 -2.37)" fill="#fff"/>
</svg>
