<svg id="Group_235" data-name="Group 235" xmlns="http://www.w3.org/2000/svg" xmlns:xlink="http://www.w3.org/1999/xlink" width="41" height="42.44" viewBox="0 0 41 42.44">
  <defs>
    <linearGradient id="linear-gradient" x1="0.5" x2="0.5" y2="1" gradientUnits="objectBoundingBox">
      <stop offset="0" stop-color="#217af5"/>
      <stop offset="1" stop-color="#0047aa"/>
    </linearGradient>
    <filter id="Path_10" x="1.215" y="2.724" width="39.049" height="39.717" filterUnits="userSpaceOnUse">
      <feOffset dy="3" input="SourceAlpha"/>
      <feGaussianBlur stdDeviation="3" result="blur"/>
      <feFlood flood-opacity="0.161"/>
      <feComposite operator="in" in2="blur"/>
      <feComposite in="SourceGraphic"/>
    </filter>
  </defs>
  <rect id="Rectangle_18" data-name="Rectangle 18" width="41" height="41" rx="20.5" fill="url(#linear-gradient)"/>
  <g transform="matrix(1, 0, 0, 1, 0, 0)" filter="url(#Path_10)">
    <path id="Path_10-2" data-name="Path 10" d="M2.354,13.774a17.918,17.918,0,0,0,.289,3.165,20.284,20.284,0,0,0,.827,3.145,17.19,17.19,0,0,0,1.3,2.862.876.876,0,0,0,.564.455,1.006,1.006,0,0,0,.738-.11.869.869,0,0,0,.445-.563,1.016,1.016,0,0,0-.121-.749,17.363,17.363,0,0,1-1.58-4.006,16.665,16.665,0,0,1-.555-4.2,11.449,11.449,0,0,1,.613-3.845,8.516,8.516,0,0,1,1.757-2.97A7.821,7.821,0,0,1,9.353,5.047a8.928,8.928,0,0,1,3.525-.671,8.942,8.942,0,0,1,3.521.671,7.809,7.809,0,0,1,2.73,1.912,8.516,8.516,0,0,1,1.757,2.97,11.449,11.449,0,0,1,.613,3.845,16.651,16.651,0,0,1-.556,4.2,17.38,17.38,0,0,1-1.581,4.006.991.991,0,0,0-.13.749.871.871,0,0,0,.444.563,1.007,1.007,0,0,0,.738.11.905.905,0,0,0,.573-.455,17.969,17.969,0,0,0,1.3-2.862,19.887,19.887,0,0,0,.832-3.145,17.954,17.954,0,0,0,.288-3.165,13.552,13.552,0,0,0-.749-4.62A10.282,10.282,0,0,0,20.512,5.58a9.478,9.478,0,0,0-3.328-2.3,11.082,11.082,0,0,0-4.306-.807,11.109,11.109,0,0,0-4.315.807A9.429,9.429,0,0,0,5.24,5.58,10.321,10.321,0,0,0,3.1,9.153,13.552,13.552,0,0,0,2.354,13.774Zm3.339,8.914a1.962,1.962,0,0,0,2.6,1.388,2.006,2.006,0,0,0,1.287-.983,2.074,2.074,0,0,0,.111-1.625L8.221,16.545a2.042,2.042,0,0,0-.981-1.276,2.081,2.081,0,0,0-1.616-.123,2.043,2.043,0,0,0-1.287.988,2.064,2.064,0,0,0-.111,1.622Zm14.372,0,1.467-4.932a2.069,2.069,0,0,0-.112-1.622,2.042,2.042,0,0,0-1.286-.988,2.091,2.091,0,0,0-1.621.123,2.046,2.046,0,0,0-.977,1.276l-1.467,4.923a2.086,2.086,0,0,0,.112,1.63,2.008,2.008,0,0,0,1.286.978,1.967,1.967,0,0,0,2.6-1.388Z" transform="translate(7.86 6.25)" fill="#fff5f5"/>
  </g>
</svg>
